<?xml version="1.0" standalone="no"?>
<!DOCTYPE svg PUBLIC "-//W3C//DTD SVG 20010904//EN"
 "http://www.w3.org/TR/2001/REC-SVG-20010904/DTD/svg10.dtd">
<svg version="1.0" xmlns="http://www.w3.org/2000/svg"
 width="60.000000pt" height="60.000000pt" viewBox="0 0 60.000000 60.000000"
 preserveAspectRatio="xMidYMid meet">

<g transform="translate(0.000000,60.000000) scale(0.100000,-0.100000)"
fill="#000000" stroke="none">
<path d="M0 340 c0 -283 4 -305 55 -328 18 -8 97 -12 246 -12 239 0 264 5 287
55 17 36 17 454 0 490 -23 51 -45 55 -328 55 l-260 0 0 -260z m405 -93 c22
-31 18 -47 -10 -47 -16 0 -25 6 -25 15 0 8 -7 15 -15 15 -27 0 -16 -28 20 -48
66 -40 55 -124 -17 -130 -28 -2 -40 2 -52 20 -23 32 -20 48 9 48 16 0 25 -6
25 -15 0 -8 7 -15 15 -15 27 0 16 39 -15 55 -17 9 -35 27 -40 40 -27 71 63
123 105 62z m-141 7 c25 -25 20 -54 -9 -54 -16 0 -25 6 -25 15 0 8 -7 15 -15
15 -13 0 -15 -12 -13 -67 2 -42 8 -68 16 -71 6 -2 12 3 12 12 0 10 9 16 25 16
17 0 25 -6 25 -17 0 -46 -74 -71 -112 -36 -25 22 -26 157 -1 185 20 22 76 24
97 2z m276 -3 c5 -11 10 -27 10 -35 0 -20 -36 -21 -44 -1 -8 21 -26 19 -26 -2
1 -10 15 -27 33 -38 35 -22 47 -67 27 -105 -15 -28 -85 -29 -100 -1 -23 45 7
73 36 34 10 -15 15 -16 26 -5 11 11 6 20 -30 50 -46 40 -55 77 -26 106 22 23
81 21 94 -3z"/>
</g>
</svg>
