<?xml version="1.0" standalone="no"?>
<!DOCTYPE svg PUBLIC "-//W3C//DTD SVG 20010904//EN"
 "http://www.w3.org/TR/2001/REC-SVG-20010904/DTD/svg10.dtd">
<svg version="1.0" xmlns="http://www.w3.org/2000/svg"
 width="60.000000pt" height="60.000000pt" viewBox="0 0 60.000000 60.000000"
 preserveAspectRatio="xMidYMid meet">

<g transform="translate(0.000000,60.000000) scale(0.100000,-0.100000)"
fill="#000000" stroke="none">
<path d="M95 443 c3 -21 12 -116 20 -212 8 -96 17 -176 18 -178 2 -1 40 -13
85 -26 l82 -24 82 24 c45 13 83 25 85 26 1 2 10 82 18 178 8 96 17 191 20 212
l5 37 -210 0 -210 0 5 -37z m343 -75 l-3 -33 -102 2 -103 2 0 -24 c0 -25 0
-25 101 -25 l101 0 -7 -82 c-4 -46 -9 -86 -11 -89 -2 -4 -27 -13 -55 -19 -41
-10 -62 -10 -106 0 -58 14 -73 30 -73 79 0 28 3 31 29 31 23 0 30 -5 33 -22 6
-45 102 -39 110 7 4 20 0 24 -31 29 -20 3 -60 6 -88 6 -46 0 -53 3 -57 23 -9
42 -14 135 -9 141 4 3 67 6 140 6 l134 0 -3 -32z"/>
</g>
</svg>
